<svg width="810" height="239" viewBox="0 0 810 239" fill="none" xmlns="http://www.w3.org/2000/svg">
<path d="M744.286 173.016C741.736 173.016 739.711 172.266 738.211 170.766C736.861 169.116 736.187 166.866 736.187 164.017V67.2706C736.187 64.4207 736.861 62.2458 738.211 60.7459C739.561 59.096 741.586 58.271 744.286 58.271C746.836 58.271 748.786 59.096 750.136 60.7459C751.636 62.2458 752.386 64.4207 752.386 67.2706V80.7701C762.585 67.2706 776.685 60.5209 794.684 60.5209H800.309C803.159 60.5209 805.409 61.1959 807.059 62.5458C808.708 63.7458 809.533 65.4707 809.533 67.7206C809.533 69.9705 808.708 71.6954 807.059 72.8954C805.409 74.0953 803.159 74.6953 800.309 74.6953H794.009C781.26 74.6953 771.135 78.3702 763.635 85.7199C756.286 92.9196 752.611 102.744 752.611 115.194V164.017C752.611 166.716 751.861 168.891 750.361 170.541C749.011 172.191 746.986 173.016 744.286 173.016Z" fill="white"/>
<path d="M645.517 227.014C634.418 227.014 624.518 225.364 615.819 222.064C607.119 218.764 600.744 214.265 596.694 208.565C595.645 207.065 595.12 205.565 595.12 204.065C595.12 201.665 596.32 199.565 598.719 197.765C599.619 197.015 600.969 196.64 602.769 196.64C605.319 196.64 607.719 197.84 609.969 200.24C613.269 204.14 618.069 207.215 624.368 209.465C630.818 211.865 637.643 213.065 644.842 213.065C658.342 213.065 668.991 209.015 676.791 200.915C684.741 192.815 688.716 181.866 688.716 168.066V152.767C684.066 158.917 678.141 163.642 670.941 166.941C663.742 170.091 655.792 171.666 647.092 171.666C628.793 171.666 614.469 166.492 604.119 156.142C593.92 145.642 588.82 131.093 588.82 112.494V66.5956C588.82 64.3457 589.645 62.4708 591.295 60.9709C592.945 59.3209 594.97 58.496 597.369 58.496C599.769 58.496 601.719 59.3209 603.219 60.9709C604.869 62.4708 605.694 64.3457 605.694 66.5956V112.494C605.694 126.893 609.294 138.143 616.494 146.242C623.843 154.192 634.043 158.167 647.092 158.167C659.992 158.167 669.966 154.342 677.016 146.692C684.066 139.043 687.591 128.168 687.591 114.069V68.8456C687.591 65.5457 688.341 62.9958 689.841 61.1959C691.491 59.246 693.74 58.271 696.59 58.271C699.29 58.271 701.39 59.246 702.89 61.1959C704.54 62.9958 705.365 65.5457 705.365 68.8456V166.941C705.365 178.791 702.815 189.216 697.715 198.215C692.765 207.365 685.791 214.415 676.791 219.364C667.791 224.464 657.367 227.014 645.517 227.014Z" fill="white"/>
<path d="M465.904 173.018C463.354 173.018 461.329 172.268 459.829 170.768C458.479 169.118 457.804 166.868 457.804 164.018V8.99964C457.804 6.14976 458.479 3.97484 459.829 2.47491C461.329 0.824969 463.354 0 465.904 0C468.454 0 470.479 0.824969 471.979 2.47491C473.479 3.97484 474.229 6.14976 474.229 8.99964V80.5467C479.778 73.197 486.453 67.6472 494.253 63.8973C502.202 60.1475 510.827 58.2726 520.127 58.2726C534.376 58.2726 545.326 62.2474 552.975 70.1971C560.775 78.1468 564.675 89.5463 564.675 104.396V164.018C564.675 166.868 563.925 169.118 562.425 170.768C560.925 172.268 558.9 173.018 556.35 173.018C553.65 173.018 551.625 172.268 550.275 170.768C548.925 169.118 548.25 166.868 548.25 164.018V104.396C548.25 83.0966 538.201 72.447 518.102 72.447C504.902 72.447 494.253 76.3468 486.153 84.1465C478.203 91.9462 474.229 102.296 474.229 115.195V164.018C474.229 166.718 473.479 168.893 471.979 170.543C470.629 172.193 468.604 173.018 465.904 173.018Z" fill="white"/>
<path d="M315.384 238.039C312.834 238.039 310.809 237.214 309.309 235.564C307.959 234.064 307.284 231.889 307.284 229.039V67.2706C307.284 64.4207 307.959 62.2458 309.309 60.7459C310.809 59.096 312.834 58.271 315.384 58.271C318.084 58.271 320.109 59.096 321.459 60.7459C322.959 62.3958 323.709 64.5707 323.709 67.2706V81.67C335.258 66.0707 351.907 58.271 373.656 58.271C391.806 58.271 406.055 63.2958 416.405 73.3454C426.904 83.395 432.154 97.1944 432.154 114.744C432.154 126.593 429.754 136.943 424.954 145.792C420.155 154.492 413.255 161.242 404.255 166.042C395.406 170.691 384.981 173.016 372.981 173.016C362.632 173.016 353.482 171.216 345.533 167.616C337.733 163.867 330.533 158.017 323.934 150.067V229.039C323.934 231.739 323.184 233.914 321.684 235.564C320.184 237.214 318.084 238.039 315.384 238.039ZM371.857 158.842C385.506 158.842 396.156 154.942 403.805 147.142C411.605 139.193 415.505 128.243 415.505 114.294C415.505 100.794 411.68 90.4447 404.03 83.245C396.531 76.0453 385.731 72.4454 371.632 72.4454C356.782 72.4454 345.083 76.2703 336.533 83.9199C327.983 91.4196 323.709 101.694 323.709 114.744C323.709 123.443 325.658 131.168 329.558 137.918C333.608 144.517 339.233 149.692 346.433 153.442C353.782 157.042 362.257 158.842 371.857 158.842Z" fill="white"/>
<path d="M223.335 173.016C203.836 173.016 188.762 167.991 178.112 157.942C167.462 147.892 162.138 133.643 162.138 115.194C162.138 97.4944 167.537 83.6199 178.337 73.5704C189.137 63.3708 203.911 58.271 222.66 58.271C234.21 58.271 244.484 60.1459 253.484 63.8957C262.484 67.4956 269.458 72.6704 274.408 79.4201C279.508 86.0198 282.058 93.5945 282.058 102.144C282.058 108.444 280.258 113.319 276.658 116.769C273.208 120.218 268.408 121.943 262.259 121.943H179.012C179.012 133.493 182.912 142.567 190.712 149.167C198.511 155.617 209.386 158.842 223.335 158.842C231.885 158.842 239.235 157.942 245.384 156.142C251.534 154.192 257.309 151.117 262.709 146.917C265.558 144.517 267.883 143.317 269.683 143.317C271.033 143.317 272.308 143.917 273.508 145.117C275.608 146.917 276.658 148.792 276.658 150.742C276.658 152.242 275.758 153.892 273.958 155.692C267.808 161.542 260.609 165.892 252.359 168.741C244.109 171.591 234.435 173.016 223.335 173.016ZM257.309 108.669C260.009 108.669 262.034 108.144 263.384 107.094C264.733 105.894 265.408 103.794 265.408 100.794C265.408 95.3945 263.608 90.5197 260.009 86.1698C256.409 81.82 251.309 78.4452 244.709 76.0453C238.26 73.6454 230.91 72.4454 222.66 72.4454C209.311 72.4454 198.736 75.7453 190.937 82.345C183.287 88.7947 179.462 97.5694 179.462 108.669H257.309Z" fill="white"/>
<path d="M31.0487 170.768C21.4491 170.768 13.8744 168.443 8.32465 163.793C2.77488 159.144 0 152.994 0 145.344C0 139.644 1.12495 134.695 3.37486 130.495C5.62477 126.145 9.97458 121.57 16.4243 116.77L104.846 49.9481C106.796 48.4482 108.146 47.0983 108.895 45.8983C109.795 44.6984 110.245 43.2734 110.245 41.6235C110.245 38.1736 107.621 36.4487 102.371 36.4487H20.0242C15.6744 36.4487 11.9245 35.4737 8.77463 33.5238C5.77476 31.4239 4.27482 28.574 4.27482 24.9742C4.27482 21.2243 5.77476 18.3745 8.77463 16.4245C11.7745 14.3246 15.5244 13.2747 20.0242 13.2747H109.345C119.095 13.2747 126.67 15.5246 132.07 20.0244C137.619 24.3742 140.394 30.5989 140.394 38.6986C140.394 44.8484 139.269 49.9481 137.019 53.998C134.769 58.0478 130.42 62.4726 123.97 67.2724L35.5485 134.095C33.5986 135.595 32.1737 137.02 31.2737 138.369C30.5237 139.569 30.1488 141.069 30.1488 142.869C30.1488 146.019 33.6736 147.594 40.7233 147.594H126.445C130.795 147.594 134.469 148.644 137.469 150.744C140.619 152.694 142.194 155.469 142.194 159.069C142.194 162.818 140.694 165.743 137.694 167.843C134.694 169.793 130.945 170.768 126.445 170.768H31.0487Z" fill="white"/>
</svg>
